<svg width="101" height="38" viewBox="0 0 101 38" fill="none" xmlns="http://www.w3.org/2000/svg">
<g filter="url(#filter0_d_1_188)">
<path d="M21.3663 29H4.80625V0.999998H8.12625V26.04H21.3663V29ZM21.6541 15C21.6541 10.3333 22.6407 6.76 24.6141 4.28C26.5874 1.77333 29.4007 0.52 33.0541 0.52C35.0274 0.52 36.7341 0.866666 38.1741 1.56C39.6141 2.25333 40.8007 3.24 41.7341 4.52C42.6941 5.77333 43.4007 7.29333 43.8541 9.08C44.3074 10.84 44.5341 12.8133 44.5341 15C44.5341 19.6667 43.5341 23.2533 41.5341 25.76C39.5607 28.24 36.7341 29.48 33.0541 29.48C31.1074 29.48 29.4141 29.1333 27.9741 28.44C26.5607 27.7467 25.3741 26.7733 24.4141 25.52C23.4807 24.24 22.7874 22.72 22.3341 20.96C21.8807 19.1733 21.6541 17.1867 21.6541 15ZM25.1741 15C25.1741 16.5467 25.3207 18.0133 25.6141 19.4C25.9341 20.7867 26.4141 22.0133 27.0541 23.08C27.6941 24.12 28.5074 24.96 29.4941 25.6C30.5074 26.2133 31.6941 26.52 33.0541 26.52C35.5341 26.52 37.4807 25.5867 38.8941 23.72C40.3074 21.8267 41.0141 18.92 41.0141 15C41.0141 13.48 40.8541 12.0267 40.5341 10.64C40.2407 9.22667 39.7607 8 39.0941 6.96C38.4541 5.89333 37.6274 5.05333 36.6141 4.44C35.6274 3.8 34.4407 3.48 33.0541 3.48C30.6007 3.48 28.6674 4.42667 27.2541 6.32C25.8674 8.18667 25.1741 11.08 25.1741 15ZM59.5978 15.04H68.9978V27.36C68.5711 27.68 68.0511 27.9733 67.4378 28.24C66.8511 28.5067 66.2111 28.7333 65.5178 28.92C64.8511 29.1067 64.1445 29.24 63.3978 29.32C62.6778 29.4267 61.9711 29.48 61.2778 29.48C59.4911 29.48 57.8511 29.2 56.3578 28.64C54.8645 28.0533 53.5711 27.1733 52.4778 26C51.3845 24.8 50.5311 23.2933 49.9178 21.48C49.3045 19.64 48.9978 17.48 48.9978 15C48.9978 12.4133 49.3711 10.2 50.1178 8.36C50.8645 6.52 51.8378 5.02667 53.0378 3.88C54.2378 2.70667 55.5845 1.85333 57.0778 1.32C58.5711 0.786666 60.0645 0.52 61.5578 0.52C63.1578 0.52 64.4778 0.613332 65.5178 0.799998C66.5578 0.959998 67.4378 1.18666 68.1578 1.48L67.3178 4.4C66.0378 3.78667 64.2111 3.48 61.8378 3.48C60.7178 3.48 59.5978 3.68 58.4778 4.08C57.3845 4.45333 56.3978 5.09333 55.5178 6C54.6378 6.90667 53.9178 8.09333 53.3578 9.56C52.7978 11.0267 52.5178 12.84 52.5178 15C52.5178 16.9733 52.7445 18.68 53.1978 20.12C53.6511 21.56 54.2778 22.76 55.0778 23.72C55.9045 24.6533 56.8911 25.36 58.0378 25.84C59.1845 26.2933 60.4378 26.52 61.7978 26.52C63.5045 26.52 64.9578 26.1867 66.1578 25.52V17.72L59.5978 16.92V15.04ZM73.49 15C73.49 10.3333 74.4767 6.76 76.45 4.28C78.4233 1.77333 81.2367 0.52 84.89 0.52C86.8633 0.52 88.57 0.866666 90.01 1.56C91.45 2.25333 92.6367 3.24 93.57 4.52C94.53 5.77333 95.2367 7.29333 95.69 9.08C96.1433 10.84 96.37 12.8133 96.37 15C96.37 19.6667 95.37 23.2533 93.37 25.76C91.3967 28.24 88.57 29.48 84.89 29.48C82.9433 29.48 81.25 29.1333 79.81 28.44C78.3967 27.7467 77.21 26.7733 76.25 25.52C75.3167 24.24 74.6233 22.72 74.17 20.96C73.7167 19.1733 73.49 17.1867 73.49 15ZM77.01 15C77.01 16.5467 77.1567 18.0133 77.45 19.4C77.77 20.7867 78.25 22.0133 78.89 23.08C79.53 24.12 80.3433 24.96 81.33 25.6C82.3433 26.2133 83.53 26.52 84.89 26.52C87.37 26.52 89.3167 25.5867 90.73 23.72C92.1433 21.8267 92.85 18.92 92.85 15C92.85 13.48 92.69 12.0267 92.37 10.64C92.0767 9.22667 91.5967 8 90.93 6.96C90.29 5.89333 89.4633 5.05333 88.45 4.44C87.4633 3.8 86.2767 3.48 84.89 3.48C82.4367 3.48 80.5033 4.42667 79.09 6.32C77.7033 8.18667 77.01 11.08 77.01 15Z" fill="#417A82"/>
</g>
<defs>
<filter id="filter0_d_1_188" x="0.806274" y="0.52002" width="99.5637" height="36.96" filterUnits="userSpaceOnUse" color-interpolation-filters="sRGB">
<feFlood flood-opacity="0" result="BackgroundImageFix"/>
<feColorMatrix in="SourceAlpha" type="matrix" values="0 0 0 0 0 0 0 0 0 0 0 0 0 0 0 0 0 0 127 0" result="hardAlpha"/>
<feOffset dy="4"/>
<feGaussianBlur stdDeviation="2"/>
<feComposite in2="hardAlpha" operator="out"/>
<feColorMatrix type="matrix" values="0 0 0 0 0 0 0 0 0 0 0 0 0 0 0 0 0 0 0.25 0"/>
<feBlend mode="normal" in2="BackgroundImageFix" result="effect1_dropShadow_1_188"/>
<feBlend mode="normal" in="SourceGraphic" in2="effect1_dropShadow_1_188" result="shape"/>
</filter>
</defs>
</svg>
